<svg fill="none" height="20" viewBox="0 0 24 24" width="20" xmlns="http://www.w3.org/2000/svg" xmlns:xlink="http://www.w3.org/1999/xlink"><linearGradient id="paint0_linear_1796_30018" gradientUnits="userSpaceOnUse" x1="12" x2="12" y1="1.25" y2="22.75"><stop offset="0" stop-color="#fd6700"/><stop offset="1" stop-color="#ffce00"/></linearGradient><path clip-rule="evenodd" d="m2.75 6c0-1.79493 1.45507-3.25 3.25-3.25h8c.4142 0 .75-.33579.75-.75s-.3358-.75-.75-.75h-8c-2.62335 0-4.75 2.12665-4.75 4.75v12c0 2.6234 2.12665 4.75 4.75 4.75h12c2.6234 0 4.75-2.1266 4.75-4.75v-8c0-.41421-.3358-.75-.75-.75s-.75.33579-.75.75v3.5091c-.0451-.0361-.092-.0704-.1406-.1028l-2.3809-1.5873c-1.5865-1.0577-3.699-.8485-5.0473.4998l-3.3624 3.3624c-1.3483 1.3483-3.46078 1.5575-5.04727.4998l-2.52153-1.681zm17-4c0-.41421-.3358-.75-.75-.75s-.75.33579-.75.75v2.25h-2.25c-.4142 0-.75.33579-.75.75s.3358.75.75.75h2.25v2.25c0 .41421.3358.75.75.75s.75-.33579.75-.75v-2.25h2.25c.4142 0 .75-.33579.75-.75s-.3358-.75-.75-.75h-2.25zm-11.25 9c1.38071 0 2.5-1.11929 2.5-2.5s-1.11929-2.5-2.5-2.5-2.5 1.11929-2.5 2.5 1.11929 2.5 2.5 2.5z" fill="url(#paint0_linear_1796_30018)" fill-rule="evenodd"/></svg>