<svg clip-rule="evenodd" fill-rule="evenodd" height="512" stroke-linejoin="round" stroke-miterlimit="2" viewBox="0 0 24 24" width="512" xmlns="http://www.w3.org/2000/svg"><g transform="translate(-64 -592)"><path d="m77 609.586-1.293-1.293-1.414 1.414 3 3c.391.391 1.024.391 1.414 0l3-3-1.414-1.414-1.293 1.293v-10.586h-2zm-10-12.586v10c0 .53.211 1.039.586 1.414s.884.586 1.414.586h2c.53 0 1.039-.211 1.414-.586s.586-.884.586-1.414v-4h2v-2h-6v-4h14v4h-2v2h2c.53 0 1.039-.211 1.414-.586s.586-.884.586-1.414c0-1.11 0-2.89 0-4 0-.53-.211-1.039-.586-1.414s-.884-.586-1.414-.586h-14c-.53 0-1.039.211-1.414.586s-.586.884-.586 1.414zm4 10h-2v-4h2z"/></g></svg>