<?xml version="1.0" encoding="UTF-8" standalone="no"?>
<svg xmlns="http://www.w3.org/2000/svg" xmlns:xlink="http://www.w3.org/1999/xlink" xmlns:serif="http://www.serif.com/" width="30" height="30" viewBox="0 0 32 32" version="1.1" xml:space="preserve" style="fill-rule:evenodd;clip-rule:evenodd;stroke-linejoin:round;stroke-miterlimit:2;">
    <path d="M10.808,8.479L3.553,12.106C3.383,12.191 3.241,12.323 3.143,12.486L0.143,17.486C-0,17.724 -0.038,18.012 0.04,18.279C0.118,18.547 0.304,18.77 0.553,18.894L3,20.118L3,25C3,25.379 3.214,25.725 3.553,25.894L15.553,31.894C15.834,32.035 16.166,32.035 16.447,31.894L28.447,25.894C28.786,25.725 29,25.379 29,25L29,20.118L31.447,18.894C31.696,18.77 31.882,18.547 31.96,18.279C32.038,18.012 32,17.724 31.857,17.486L28.857,12.486C28.759,12.323 28.617,12.191 28.447,12.106L21.192,8.479L22.759,6.651C23.013,6.354 23.071,5.937 22.908,5.582C22.745,5.228 22.39,5 22,5L19,5C19,5 19,1 19,1C19,0.448 18.552,0 18,0L14,0C13.448,0 13,0.448 13,1L13,5C13,5 10,5 10,5C9.61,5 9.255,5.228 9.092,5.582C8.929,5.937 8.987,6.354 9.241,6.651L10.808,8.479ZM5,24.382L15,29.382L15,22.609L13.857,24.514C13.588,24.962 13.02,25.128 12.553,24.894L5,21.118L5,24.382ZM27,21.118L19.447,24.894C18.98,25.128 18.412,24.962 18.143,24.514L17,22.609L17,29.382L27,24.382L27,21.118ZM27.619,14.308L17.413,19.411L19.381,22.692C19.381,22.692 29.587,17.589 29.587,17.589L27.619,14.308ZM4.381,14.308L2.413,17.589C2.413,17.589 12.619,22.692 12.619,22.692L14.587,19.411L4.381,14.308ZM12.149,10.043L6.235,13L16,17.882L25.765,13L19.851,10.043L16.759,13.651C16.569,13.873 16.292,14.001 16,14.001C15.708,14.001 15.431,13.873 15.241,13.651L12.149,10.043ZM12.173,7L14,7C14.552,7 15,6.552 15,6L15,2C15,2 17,2 17,2C17,2 17,6 17,6C17,6.552 17.448,7 18,7L19.827,7C19.827,7 16,11.465 16,11.465L12.173,7Z"/>
</svg>
