<svg id="Layer_1" enable-background="new 0 0 28 28" height="512" viewBox="0 0 28 28" width="512" xmlns="http://www.w3.org/2000/svg"><switch><g><path d="m21 25h-14c-2.8 0-5-2.2-5-5v-10c0-2.8 2.2-5 5-5h.8c.7-1.2 2-2 3.4-2h5.8c1.4 0 2.7.8 3.4 2h.6c2.8 0 5 2.2 5 5v10c0 2.8-2.2 5-5 5zm-14-18c-1.7 0-3 1.3-3 3v10c0 1.7 1.3 3 3 3h14c1.7 0 3-1.3 3-3v-10c0-1.7-1.3-3-3-3h-.9c-.7 0-1.3-.4-1.6-1s-.9-1-1.6-1h-5.8c-.7 0-1.3.4-1.6 1s-.9 1-1.6 1zm7 12c-2.2 0-4-1.8-4-4s1.8-4 4-4 4 1.8 4 4-1.8 4-4 4zm0-6c-1.1 0-2 .9-2 2s.9 2 2 2 2-.9 2-2-.9-2-2-2z" fill="rgb(0,0,0)"/></g></switch></svg>