<svg id="Capa_1" enable-background="new 0 0 426.679 426.679" height="512" viewBox="0 0 426.679 426.679" width="512" xmlns="http://www.w3.org/2000/svg"><g><path d="m6.358 228.443 64 64c8.475 8.185 21.98 7.951 30.165-.524 7.985-8.267 7.985-21.374 0-29.641l-27.712-27.584h119.147v119.168l-27.563-27.605c-8.475-8.185-21.98-7.95-30.165.525-7.984 8.267-7.984 21.373 0 29.641l64 64c8.327 8.336 21.834 8.343 30.17.017.006-.006.011-.011.017-.017l64-64c8.185-8.475 7.95-21.98-.524-30.165-8.267-7.985-21.374-7.985-29.641 0l-27.627 27.584v-119.148h119.168l-27.584 27.584c-8.475 8.185-8.709 21.691-.524 30.165 8.185 8.475 21.691 8.709 30.165.524.178-.172.353-.346.524-.524l64-64c8.342-8.321 8.359-21.828.038-30.17-.013-.013-.025-.025-.038-.038l-64-64c-8.185-8.475-21.69-8.71-30.165-.525s-8.71 21.69-.525 30.165c.172.178.347.353.525.525l27.605 27.627h-119.189v-119.189l27.584 27.584c8.185 8.475 21.691 8.709 30.165.524s8.709-21.691.524-30.165c-.172-.178-.346-.352-.524-.524l-64-64c-8.327-8.336-21.834-8.343-30.17-.017-.006.006-.011.011-.017.017l-64 64c-8.33 8.342-8.32 21.857.021 30.187 8.342 8.33 21.857 8.32 30.187-.021l27.563-27.584v119.189h-119.146l27.584-27.605c8.475-8.185 8.709-21.691.524-30.165-8.185-8.475-21.691-8.709-30.165-.524-.178.172-.352.346-.524.524l-64 64c-8.301 8.362-8.251 21.869.111 30.17.005.004.011.01.016.015z"/></g></svg>