<svg id="Capa_1" enable-background="new 0 0 426.667 426.667" height="512" viewBox="0 0 426.667 426.667" width="512" xmlns="http://www.w3.org/2000/svg"><g><path d="m277.333 170.667c5.658-.001 11.083-2.25 15.083-6.251l91.584-91.584v55.168c0 11.782 9.551 21.333 21.333 21.333s21.333-9.551 21.333-21.333v-106.667c.001-11.782-9.551-21.333-21.333-21.333h-106.666c-11.782 0-21.333 9.551-21.333 21.333s9.551 21.333 21.333 21.333h55.168l-91.584 91.584c-8.33 8.332-8.328 21.84.005 30.17 3.999 3.999 9.422 6.245 15.077 6.247z"/><path d="m21.333 426.667h106.667c11.782 0 21.333-9.551 21.333-21.333s-9.551-21.334-21.333-21.334h-55.168l91.584-91.584c8.185-8.475 7.95-21.98-.524-30.165-8.267-7.985-21.374-7.985-29.641 0l-91.584 91.584v-55.168c0-11.782-9.551-21.333-21.333-21.333s-21.334 9.551-21.334 21.333v106.667c0 11.781 9.551 21.333 21.333 21.333z"/></g></svg>