<svg id="Capa_1" enable-background="new 0 0 512 512" height="20" viewBox="0 0 512 512" width="20" xmlns="http://www.w3.org/2000/svg"><g id="Selection"><g><path d="m492 80c-11.046 0-20-8.954-20-20v-20h-20c-11.046 0-20-8.954-20-20s8.954-20 20-20h40c11.046 0 20 8.954 20 20v40c0 11.046-8.954 20-20 20z"/></g><g><path d="m492 200c-11.046 0-20-8.954-20-20v-40c0-11.046 8.954-20 20-20s20 8.954 20 20v40c0 11.046-8.954 20-20 20z"/></g><g><path d="m492 320h-40c-11.046 0-20-8.954-20-20s8.954-20 20-20h20v-20c0-11.046 8.954-20 20-20s20 8.954 20 20v40c0 11.046-8.954 20-20 20z"/></g><g><path d="m372 320h-40c-11.046 0-20-8.954-20-20s8.954-20 20-20h40c11.046 0 20 8.954 20 20s-8.954 20-20 20z"/></g><g><path d="m212 200c-11.046 0-20-8.954-20-20v-40c0-11.046 8.954-20 20-20s20 8.954 20 20v40c0 11.046-8.954 20-20 20z"/></g><g><path d="m212 80c-11.046 0-20-8.954-20-20v-40c0-11.046 8.954-20 20-20h40c11.046 0 20 8.954 20 20s-8.954 20-20 20h-20v20c0 11.046-8.954 20-20 20z"/></g><g><path d="m372 40h-40c-11.046 0-20-8.954-20-20s8.954-20 20-20h40c11.046 0 20 8.954 20 20s-8.954 20-20 20z"/></g><g><path d="m76.568 512c-5.304 0-10.392-2.107-14.142-5.858l-56.568-56.569c-7.811-7.811-7.811-20.474 0-28.284l42.711-42.711-42.427-42.426c-4.901-4.901-6.916-11.991-5.323-18.737 1.592-6.746 6.564-12.187 13.14-14.379l254.559-84.853c7.187-2.396 15.111-.525 20.467 4.832s7.227 13.28 4.831 20.467l-84.853 254.558c-2.192 6.576-7.632 11.548-14.378 13.14-6.745 1.594-13.836-.421-18.737-5.323l-42.426-42.427-42.712 42.712c-3.75 3.751-8.837 5.858-14.142 5.858zm-28.284-76.569 28.284 28.284 42.711-42.711c3.751-3.751 8.838-5.858 14.142-5.858s10.392 2.107 14.142 5.858l33.686 33.686 61.971-185.91-185.911 61.97 33.686 33.686c3.751 3.751 5.858 8.838 5.858 14.142s-2.107 10.391-5.858 14.142z"/></g></g></svg>