<svg clip-rule="evenodd" fill-rule="evenodd" height="512" stroke-linejoin="round" stroke-miterlimit="2" viewBox="0 0 24 24" width="512" xmlns="http://www.w3.org/2000/svg"><g transform="translate(-108 -592)"><path d="m129 611c0-1.707 0-10 0-10 0-.53-.21-1.039-.585-1.414-.376-.375-.884-.586-1.415-.586h-2c-.53 0-1.039.211-1.414.586s-.586.884-.586 1.414v4h-2v2h6v4h-14v-4h2v-2h-2c-.53 0-1.039.211-1.414.586s-.586.884-.586 1.414v4c0 .53.211 1.039.586 1.414s.884.586 1.414.586h14c.531 0 1.039-.211 1.415-.586.375-.375.585-.884.585-1.414zm-12-12.586v10.586h2v-10.586l1.293 1.293 1.414-1.414-3-3c-.39-.391-1.024-.391-1.414 0l-3 3 1.414 1.414zm8 2.586h2v4h-2z"/></g></svg>