<svg id="Capa_1" enable-background="new 0 0 512 512" height="20" viewBox="0 0 512 512" width="20" xmlns="http://www.w3.org/2000/svg"><g><path d="m497 0h-60c-8.284 0-15 6.716-15 15v15h-121v-15c0-8.284-6.716-15-15-15h-60c-8.284 0-15 6.716-15 15v15h-121v-15c0-8.284-6.716-15-15-15h-60c-8.284 0-15 6.716-15 15v60c0 8.284 6.716 15 15 15h15v121h-15c-8.284 0-15 6.716-15 15v60c0 8.284 6.716 15 15 15h15v121h-15c-8.284 0-15 6.716-15 15v60c0 8.284 6.716 15 15 15h60c8.284 0 15-6.716 15-15v-15h121v15c0 8.284 6.716 15 15 15h60c8.284 0 15-6.716 15-15v-15h121v15c0 8.284 6.716 15 15 15h60c8.284 0 15-6.716 15-15v-60c0-8.284-6.716-15-15-15h-15v-121h15c8.284 0 15-6.716 15-15v-60c0-8.284-6.716-15-15-15h-15v-121h15c8.284 0 15-6.716 15-15v-60c0-8.284-6.716-15-15-15zm-256 30h30v30h-30zm-211 0h30v30h-30zm0 211h30v30h-30zm30 241h-30v-30h30zm211 0h-30v-30h30zm211 0h-30v-30h30zm0-211h-30v-30h30zm-30-60h-15c-8.284 0-15 6.716-15 15v60c0 8.284 6.716 15 15 15h15v121h-15c-8.284 0-15 6.716-15 15v15h-121v-15c0-8.284-6.716-15-15-15h-60c-8.284 0-15 6.716-15 15v15h-121v-15c0-8.284-6.716-15-15-15h-15v-121h15c8.284 0 15-6.716 15-15v-60c0-8.284-6.716-15-15-15h-15v-121h15c8.284 0 15-6.716 15-15v-15h121v15c0 8.284 6.716 15 15 15h60c8.284 0 15-6.716 15-15v-15h121v15c0 8.284 6.716 15 15 15h15zm30-151h-30v-30h30z"/><path d="m196 241c-41.355 0-75 33.645-75 75 0 41.459 33.535 76 75 76 41.458 0 75-34.535 75-76 0-41.355-33.645-75-75-75zm0 121c-24.393 0-45-21.065-45-46 0-24.813 20.187-45 45-45s45 20.187 45 45c0 24.935-20.607 46-45 46z"/><path d="m376 241h-60c-8.284 0-15 6.716-15 15v121c0 8.284 6.716 15 15 15h60c8.284 0 15-6.716 15-15v-121c0-8.284-6.716-15-15-15zm-15 121h-30v-91h30z"/><path d="m384.521 92.656c-4.056-2.8-9.231-3.429-13.839-1.681l-240 91c-6.771 2.567-10.742 9.605-9.437 16.729s7.513 12.296 14.755 12.296h240c8.284 0 15-6.716 15-15v-91c0-4.929-2.422-9.544-6.479-12.344zm-23.521 88.344h-143.131l143.131-54.271z"/></g></svg>