<svg id="Icon" enable-background="new 0 0 100 100" height="20" viewBox="0 0 100 100" width="20" xmlns="http://www.w3.org/2000/svg"><path id="Flip_Horizintally" d="m12.975 35.743c-.882-.773-2.145-.958-3.214-.475-1.073.486-1.761 1.554-1.761 2.732v42c0 1.178.688 2.246 1.761 2.732.395.18.82.268 1.239.268.712 0 1.418-.255 1.975-.743l24-21c.653-.569 1.025-1.391 1.025-2.257s-.372-1.688-1.025-2.257zm1.025 37.646v-28.778l16.444 14.389zm76.239-38.121c-1.069-.488-2.332-.3-3.214.475l-24 21c-.653.569-1.025 1.391-1.025 2.257s.372 1.688 1.025 2.257l24 21c.557.488 1.263.743 1.975.743.419 0 .844-.088 1.239-.268 1.073-.486 1.761-1.554 1.761-2.732v-42c0-1.178-.688-2.246-1.761-2.732zm-4.239 38.121-16.444-14.389 16.444-14.389zm-33-44.389v6c0 1.657-1.342 3-3 3s-3-1.343-3-3v-6c0-1.657 1.342-3 3-3s3 1.343 3 3zm0 18v6c0 1.657-1.342 3-3 3s-3-1.343-3-3v-6c0-1.657 1.342-3 3-3s3 1.343 3 3zm0 18v6c0 1.657-1.342 3-3 3s-3-1.343-3-3v-6c0-1.657 1.342-3 3-3s3 1.343 3 3zm0 18v6c0 1.657-1.342 3-3 3s-3-1.343-3-3v-6c0-1.657 1.342-3 3-3s3 1.343 3 3zm-36-57v-12c0-1.657 1.342-3 3-3s3 1.343 3 3v4.581c3.983-3.854 12.935-10.581 27-10.581s23.017 6.727 27 10.581v-4.581c0-1.657 1.342-3 3-3s3 1.343 3 3v12c0 1.657-1.342 3-3 3h-12c-1.658 0-3-1.343-3-3s1.342-3 3-3h4.961c-3.128-3.078-10.729-9-22.961-9-12.227 0-19.827 5.917-22.959 9h4.959c1.658 0 3 1.343 3 3s-1.342 3-3 3h-12c-1.658 0-3-1.343-3-3z"/></svg>