<?xml version="1.0" encoding="UTF-8"?>
<svg xmlns="http://www.w3.org/2000/svg" viewBox="0 0 32 32" width="20" height="20"><g id="Layer_2" data-name="Layer 2"><path d="M20.462,11.369A1.017,1.017,0,0,1,20,10.534V9a3,3,0,0,0,3-3V5a3,3,0,0,0-3-3H12A3,3,0,0,0,9,5V6a3,3,0,0,0,3,3v1.534a1.016,1.016,0,0,1-.461.834A7.984,7.984,0,0,0,8,18v2a2,2,0,0,0,2,2h5v7a1,1,0,0,0,2,0V22h5a2,2,0,0,0,2-2V18A7.982,7.982,0,0,0,20.462,11.369ZM22,20H10V18a5.988,5.988,0,0,1,2.655-4.973A3.012,3.012,0,0,0,14,10.534V9a2,2,0,0,0-2-2,1,1,0,0,1-1-1V5a1,1,0,0,1,1-1h8a1,1,0,0,1,1,1V6a1,1,0,0,1-1,1,2,2,0,0,0-2,2v1.534a3.014,3.014,0,0,0,1.346,2.494A5.987,5.987,0,0,1,22,18Z"/></g></svg>
