<svg id="Capa_1" enable-background="new 0 0 511.998 511.998" height="512" viewBox="0 0 511.998 511.998" width="512" xmlns="http://www.w3.org/2000/svg"><g><path d="m246.479 246.261-236.677 88c-5.845 2.173-9.735 7.736-9.772 13.972-.036 6.236 3.789 11.844 9.608 14.085l101.119 38.952 38.953 101.12c2.23 5.792 7.796 9.608 13.996 9.608h.089c6.235-.036 11.799-3.927 13.972-9.772l87.999-236.677c2.045-5.499.695-11.686-3.453-15.834-4.147-4.149-10.334-5.497-15.834-3.454zm-83.02 208.364-27.101-70.351c-1.523-3.956-4.649-7.082-8.605-8.605l-70.35-27.099 168.827-62.772z"/><path d="m475.216 36.812c-23.737-23.739-55.299-36.812-88.87-36.812s-65.133 13.073-88.87 36.812c-49.003 49.003-49.003 128.737 0 177.74 23.737 23.738 55.299 36.812 88.87 36.812s65.133-13.073 88.87-36.812c49.003-49.004 49.003-128.738 0-177.74zm-21.213 156.526c-18.072 18.072-42.1 28.024-67.657 28.024s-49.585-9.953-67.657-28.024c-37.306-37.306-37.306-98.008 0-135.314 18.072-18.071 42.1-28.024 67.657-28.024s49.585 9.953 67.657 28.024c37.306 37.307 37.306 98.008 0 135.314z"/><path d="m428.588 83.439c-5.856-5.858-15.354-5.858-21.213 0l-21.029 21.029-21.029-21.029c-5.857-5.858-15.355-5.858-21.213 0s-5.858 15.355 0 21.213l21.029 21.029-21.029 21.029c-5.858 5.857-5.858 15.355 0 21.213 2.929 2.929 6.768 4.394 10.606 4.394s7.678-1.465 10.606-4.394l21.029-21.029 21.029 21.029c2.929 2.929 6.768 4.394 10.606 4.394s7.678-1.464 10.606-4.394c5.858-5.858 5.858-15.355 0-21.213l-21.029-21.029 21.029-21.029c5.861-5.857 5.861-15.355.002-21.213z"/></g></svg>