<svg id="layer_1" enable-background="new 0 0 32 32" viewBox="0 0 32 32" xmlns="http://www.w3.org/2000/svg"><g><path d="m29.9500122 12.7600098c-.1000366-.3200073-.3599854-.5700073-.6900024-.6600342l-7.9400024-2.1300049-4.4799805-6.8900146c-.3700562-.5699463-1.3099976-.5699463-1.6800537 0l-4.4799805 6.8900146-7.9400024 2.1300049c-.3300171.0900269-.5899658.3400269-.6900024.6600342-.1099854.3199463-.039978.6699829.1699829.9400024l5.1800537 6.3899536-.4300537 8.210022c-.0199585.3300171.1300049.6599731.4100342.8599854.2700195.2000122.6300049.2399902.9400024.1199951l7.6799926-2.9400025 2.9000244 1.1100464c-.5300293-.5400391-.8500366-1.2700195-.8500366-2.0900269 0-1.6500244 1.3400269-3 3-3 0-1.6500244 1.3400269-3 3-3 .3500366 0 .6900024.0599976 1 .1799927l4.7300415-5.8399658c.2099609-.2700195.2799683-.6200561.1699829-.9400024z"/><path d="m27.0488281 24.3618164h-2v-2c0-.5522461-.4477539-1-1-1s-1 .4477539-1 1v2h-2c-.5522461 0-1 .4477539-1 1s.4477539 1 1 1h2v2c0 .5522461.4477539 1 1 1s1-.4477539 1-1v-2h2c.5522461 0 1-.4477539 1-1s-.4477539-1-1-1z"/></g></svg>