<svg height="20" viewBox="0 0 24 24" width="20" xmlns="http://www.w3.org/2000/svg"><g fill="rgb(0,0,0)"><path d="m9.25871 7.97395c.30437-.28095.32334-.75544.04239-1.05981-.28095-.30436-.75545-.32334-1.05981-.04239l-2.25 2.07692c-.15381.14198-.24129.34178-.24129.5511 0 .20933.08748.40913.24129.55113l2.25 2.0769c.30436.281.77886.262 1.05981-.0424s.26198-.7789-.04239-1.0598l-.84047-.7758h5.62026c.6991 0 1.1684.0008 1.5267.0364.3464.0343.5072.0951.6135.1639.1485.096.275.2225.371.371.0687.1063.1296.2671.1639.6134.0355.3584.0364.8277.0364 1.5268s-.0009 1.1685-.0364 1.5268c-.0343.3463-.0951.5071-.1639.6134-.096.1486-.2225.275-.371.3711-.1063.0687-.2671.1295-.6135.1639-.3583.0355-.8276.0364-1.5267.0364h-4.5385c-.41421 0-.75.3357-.75.75 0 .4142.33579.75.75.75h4.5758c.6521 0 1.1963 0 1.6375-.0438.4615-.0457.8905-.1452 1.2798-.3969.3268-.2113.605-.4895.8163-.8162.2517-.3894.3511-.8184.3969-1.2799.0437-.4411.0437-.9853.0437-1.6374v-.0747c0-.6522 0-1.1964-.0437-1.6375-.0458-.4615-.1452-.8905-.397-1.2798-.2112-.3268-.4894-.60501-.8162-.81628-.3893-.25172-.8183-.35115-1.2798-.39692-.4412-.04375-.9854-.04374-1.6375-.04373h-5.65756z"/><path clip-rule="evenodd" d="m11.9426 1.25c-2.30837-.00001-4.11741-.00002-5.5289.18975-1.44473.19424-2.58475.59958-3.47956 1.49439s-1.30015 2.03483-1.49439 3.47957c-.18977 1.41148-.18976 3.22052-.18975 5.52889v.1148c-.00001 2.3084-.00002 4.1174.18975 5.5289.19424 1.4447.59958 2.5848 1.49439 3.4796s2.03483 1.3001 3.47956 1.4944c1.41149.1897 3.22053.1897 5.5289.1897h.1148c2.3084 0 4.1174 0 5.5289-.1897 1.4447-.1943 2.5848-.5996 3.4796-1.4944s1.3001-2.0349 1.4944-3.4796c.1897-1.4115.1897-3.2205.1897-5.5289v-.1148c0-2.30837 0-4.11741-.1897-5.52889-.1943-1.44474-.5996-2.58476-1.4944-3.47957s-2.0349-1.30015-3.4796-1.49439c-1.4115-.18977-3.2205-.18976-5.5289-.18975zm-7.9478 2.7448c.56965-.56966 1.34037-.89655 2.61878-1.06843 1.29998-.17478 3.00819-.17637 5.38642-.17637 2.3782 0 4.0864.00159 5.3864.17637 1.2784.17188 2.0491.49877 2.6188 1.06843.5697.56965.8966 1.34037 1.0684 2.61878.1748 1.29998.1764 3.0082.1764 5.38642 0 2.3782-.0016 4.0864-.1764 5.3864-.1718 1.2784-.4987 2.0491-1.0684 2.6188s-1.3404.8966-2.6188 1.0684c-1.3.1748-3.0082.1764-5.3864.1764-2.37823 0-4.08644-.0016-5.38642-.1764-1.27841-.1718-2.04913-.4987-2.61878-1.0684-.56966-.5697-.89655-1.3404-1.06843-2.6188-.17478-1.3-.17637-3.0082-.17637-5.3864 0-2.37822.00159-4.08644.17637-5.38642.17188-1.27841.49877-2.04913 1.06843-2.61878z" fill-rule="evenodd"/></g></svg>