<?xml version="1.0" encoding="UTF-8" standalone="no"?>
<svg xmlns="http://www.w3.org/2000/svg" xmlns:xlink="http://www.w3.org/1999/xlink" xmlns:serif="http://www.serif.com/" width="30" height="30" viewBox="0 0 32 32" version="1.1" xml:space="preserve" style="fill-rule:evenodd;clip-rule:evenodd;stroke-linejoin:round;stroke-miterlimit:2;">
    <path d="M9.803,8.981L3.553,12.106C3.383,12.191 3.241,12.323 3.143,12.486L0.143,17.486C-0,17.724 -0.038,18.012 0.04,18.279C0.118,18.547 0.304,18.77 0.553,18.894L3,20.118L3,25C3,25.379 3.214,25.725 3.553,25.894L15.553,31.894C15.834,32.035 16.166,32.035 16.447,31.894L28.447,25.894C28.786,25.725 29,25.379 29,25L29,20.118L31.447,18.894C31.696,18.77 31.882,18.547 31.96,18.279C32.038,18.012 32,17.724 31.857,17.486L28.857,12.486C28.759,12.323 28.617,12.191 28.447,12.106L22.197,8.981C22.506,8.919 22.773,8.712 22.908,8.419C23.071,8.064 23.013,7.647 22.759,7.35L16.759,0.349C16.569,0.128 16.292,0 16,0C15.708,0 15.431,0.128 15.241,0.349L9.241,7.35C8.987,7.647 8.929,8.064 9.092,8.419C9.227,8.712 9.493,8.919 9.803,8.981ZM5,24.382L15,29.382L15,22.609L13.857,24.514C13.588,24.962 13.02,25.128 12.553,24.894L5,21.118L5,24.382ZM27,21.118L19.447,24.894C18.98,25.128 18.412,24.962 18.143,24.514L17,22.609L17,29.382L27,24.382L27,21.118ZM27.619,14.308L17.413,19.411L19.381,22.692C19.381,22.692 29.587,17.589 29.587,17.589L27.619,14.308ZM4.381,14.308L2.413,17.589C2.413,17.589 12.619,22.692 12.619,22.692L14.587,19.411L4.381,14.308ZM13,9.618L6.235,13L16,17.882L25.764,13L19,9.618L19,13.001C19,13.553 18.552,14.001 18,14.001L14,14.001C13.448,14.001 13,13.553 13,13.001L13,9.618ZM12.173,7.001L16,2.536C16,2.536 19.827,7.001 19.827,7.001C19.827,7.001 18,7.001 18,7.001C17.448,7.001 17,7.449 17,8.001L17,12.001C17,12.001 15,12.001 15,12.001C15,12.001 15,8.001 15,8.001C15,7.449 14.552,7.001 14,7.001L12.173,7.001Z"/>
</svg>
