<svg id="Capa_1" enable-background="new 0 0 512 512" height="20" viewBox="0 0 512 512" width="20" xmlns="http://www.w3.org/2000/svg"><g><path d="m182.732 58.859h30.358v12.912c0 8.284 6.716 15 15 15h55.82c8.284 0 15-6.716 15-15v-12.912h31.723c8.27 0 15-6.729 15-15 0-8.27-6.73-15-15-15h-31.723v-12.907c0-8.284-6.716-15-15-15h-55.82c-8.284 0-15 6.716-15 15v12.907h-30.358c-8.27 0-15 6.73-15 15 0 8.271 6.73 15 15 15zm86.178-27.907v25.819h-25.82v-12.863c0-.016.002-.032.002-.048s-.002-.032-.002-.048v-12.86z"/><path d="m330.633 453.14h-32.4v-12.911c0-8.284-6.716-15-15-15h-55.819c-8.284 0-15 6.716-15 15v12.911h-33.681c-8.27 0-15 6.73-15 15 0 8.271 6.73 15 15 15h33.681v12.908c0 8.284 6.716 15 15 15h55.819c8.284 0 15-6.716 15-15v-12.908h32.4c8.27 0 15-6.729 15-15 0-8.27-6.731-15-15-15zm-62.401 27.908h-25.819v-25.819h25.819z"/><path d="m113.533 453.14h-27.713v-12.911c0-8.284-6.716-15-15-15h-11.957v-32.409c0-8.27-6.73-15-15-15s-15 6.73-15 15v32.409h-13.863c-8.284 0-15 6.716-15 15v55.819c0 8.284 6.716 15 15 15h55.82c8.284 0 15-6.716 15-15v-12.908h27.713c8.28 0 15-6.729 15-15 0-8.27-6.721-15-15-15zm-57.713 27.908h-25.82v-25.819h25.82z"/><path d="m15 86.771h13.863v20.759c0 8.27 6.73 15 15 15s15-6.73 15-15v-20.759h11.957c8.284 0 15-6.716 15-15v-12.912h31.723c8.27 0 15-6.729 15-15 0-8.27-6.73-15-15-15h-31.723v-12.907c0-8.284-6.716-15-15-15h-55.82c-8.284 0-15 6.716-15 15v55.819c0 8.285 6.716 15 15 15zm15-55.819h25.82v25.819h-25.82z"/><path d="m497 .952h-55.819c-8.284 0-15 6.716-15 15v12.907h-30.358c-8.27 0-15 6.73-15 15 0 8.271 6.73 15 15 15h30.358v12.912c0 8.284 6.716 15 15 15h11.962v30.769c0 8.27 6.72 15 15 15 8.27 0 14.99-6.73 14.99-15v-30.769h13.867c8.284 0 15-6.716 15-15v-55.819c0-8.284-6.716-15-15-15zm-15 30v25.819h-25.819v-12.873c0-.013.002-.026.002-.039s-.002-.026-.002-.039v-12.868z"/><path d="m497 213.78h-13.867v-31.04c0-8.28-6.72-15.011-14.99-15.011-8.28 0-15 6.73-15 15.011v31.04h-11.962c-8.284 0-15 6.716-15 15v55.82c0 8.284 6.716 15 15 15h11.962v28.03c0 8.27 6.72 15 15 15 8.27 0 15-6.73 15-15v-28.03h13.857c8.284 0 15-6.716 15-15v-55.82c0-8.284-6.716-15-15-15zm-40.819 30h25.819v25.82h-25.819z"/><path d="m497 425.229h-13.857v-32.409c0-8.27-6.73-15-15-15-8.28 0-15 6.73-15 15v32.409h-11.962c-8.284 0-15 6.716-15 15v12.911h-30.358c-8.27 0-15 6.73-15 15 0 8.271 6.73 15 15 15h30.358v12.908c0 8.284 6.716 15 15 15h55.819c8.284 0 15-6.716 15-15v-55.819c0-8.285-6.716-15-15-15zm-15 55.819h-25.819v-12.87c0-.013.002-.026.002-.039s-.002-.026-.002-.039v-12.873h25.819z"/><path d="m348.409 250.15v-58.062c0-8.284-6.716-15-15-15h-96.12l-37.341-64.676c-2.679-4.641-7.631-7.5-12.99-7.5s-10.311 2.859-12.99 7.5l-62.506 108.264c-2.68 4.641-2.68 10.359 0 15 2.679 4.641 7.631 7.5 12.99 7.5h65.062v77.807c0 8.284 6.716 15 15 15h50.353c6.952 33.597 36.771 58.93 72.397 58.93 40.765 0 73.93-33.165 73.93-73.93 0-33.418-22.294-61.714-52.785-70.833zm-161.451-100.238 36.525 63.264h-17.38c-.523-.055-1.052-.086-1.589-.086s-1.067.031-1.589.086h-52.492zm32.556 93.264h29.95c5.359 0 10.311-2.859 12.99-7.5 2.68-4.641 2.68-10.359 0-15l-7.845-13.588h63.799v40.514c-31.623 3.794-57.175 27.611-63.542 58.381h-35.353v-62.807zm107.75 121.736c-24.223 0-43.93-19.707-43.93-43.93s19.707-43.93 43.93-43.93 43.93 19.707 43.93 43.93-19.707 43.93-43.93 43.93z"/><path d="m15 296.621h13.863v31.009c0 8.27 6.73 15 15 15s15-6.73 15-15v-31.009h11.957c8.284 0 15-6.716 15-15v-55.819c0-8.284-6.716-15-15-15h-11.957v-38.072c0-8.27-6.73-15-15-15s-15 6.73-15 15v38.072h-13.863c-8.284 0-15 6.716-15 15v55.819c0 8.284 6.716 15 15 15zm15-55.819h25.82v25.819h-25.82z"/></g></svg>