<svg id="Layer_1" enable-background="new 0 0 512 512" viewBox="0 0 512 512"  xmlns="http://www.w3.org/2000/svg"><path clip-rule="evenodd" d="m268.71 29.281c-5.523 0-10-4.477-10-10s4.477-10 10-10c59.887 0 119.775 22.847 165.469 68.54 22.369 22.369 39.281 48.215 50.728 75.851 11.875 28.668 17.812 59.166 17.812 89.617 0 5.523-4.477 10-10 10s-10-4.477-10-10c0-27.965-5.417-55.886-16.25-82.039-10.415-25.144-25.891-48.748-46.431-69.289-41.787-41.786-96.558-62.68-151.328-62.68zm215.703 427.973-115.61-115.61-14.329 14.329c-14.514 14.514-36.711 16.701-53.778 5.297-27.651-18.474-55.521-41.273-82.108-67.859-26.586-26.586-49.384-54.457-67.859-82.107-11.403-17.067-9.216-39.264 5.298-53.778l14.329-14.329-115.61-115.611-3.571 3.571c-103.612 103.612 7.803 261.132 88.169 341.498s237.887 191.782 341.499 88.17zm-413.913-442.197c15.903-7.788 35.714-5.088 48.905 8.103l55.377 55.377c13.191 13.191 15.891 33.002 8.103 48.905zm314.058 314.058c15.903-7.788 35.714-5.088 48.904 8.102l55.377 55.377c13.191 13.19 15.891 33.002 8.103 48.904zm-115.848-162.493c10.057 0 20.07 1.936 29.418 5.808 8.963 3.713 17.409 9.26 24.795 16.646 7.387 7.387 12.934 15.832 16.647 24.796 3.872 9.348 5.808 19.361 5.808 29.418 0 5.523 4.477 10 10 10s10-4.477 10-10c0-12.544-2.457-25.133-7.371-36.996-4.745-11.456-11.729-22.143-20.944-31.359-9.215-9.215-19.902-16.198-31.358-20.943-11.863-4.914-24.453-7.37-36.996-7.37-5.523 0-10 4.477-10 10 .001 5.523 4.478 10 10.001 10zm0-68.67c19.011 0 37.978 3.676 55.729 11.029 17.053 7.064 33.078 17.575 47.042 31.539 13.964 13.963 24.475 29.988 31.539 47.042 7.353 17.751 11.029 36.717 11.029 55.729 0 5.523 4.477 10 10 10s10-4.477 10-10c0-21.498-4.197-43.041-12.591-63.307-8.096-19.546-20.043-37.813-35.836-53.605-15.792-15.792-34.059-27.74-53.605-35.836-20.265-8.394-41.809-12.591-63.307-12.591-5.523 0-10 4.477-10 10 0 5.522 4.477 10 10 10z" fill-rule="evenodd"/></svg>