<?xml version="1.0" encoding="iso-8859-1"?>
<!-- Generator: Adobe Illustrator 19.0.0, SVG Export Plug-In . SVG Version: 6.00 Build 0)  -->
<svg width="1" height="1" version="1.1" id="Layer_1" xmlns="http://www.w3.org/2000/svg" xmlns:xlink="http://www.w3.org/1999/xlink" x="0px" y="0px"
	 viewBox="0 0 512 512" style="enable-background:new 0 0 512 512;" xml:space="preserve">
<g>
	<g>
		<g>
			<rect x="213.333" y="213.333" width="85.333" height="85.333"/>
			<path d="M128,85.333c-23.531,0-42.667,19.136-42.667,42.667c0,23.531,19.136,42.667,42.667,42.667h42.667V128
				C170.667,104.469,151.531,85.333,128,85.333z"/>
			<path d="M85.333,384c0,23.531,19.136,42.667,42.667,42.667c23.531,0,42.667-19.136,42.667-42.667v-42.667H128
				C104.469,341.333,85.333,360.469,85.333,384z"/>
			<path d="M426.667,128c0-23.531-19.136-42.667-42.667-42.667c-23.531,0-42.667,19.136-42.667,42.667v42.667H384
				C407.531,170.667,426.667,151.531,426.667,128z"/>
			<path d="M341.333,384c0,23.531,19.136,42.667,42.667,42.667c23.531,0,42.667-19.136,42.667-42.667
				c0-23.531-19.136-42.667-42.667-42.667h-42.667V384z"/>
			<path d="M444.16,0H67.84C30.379,0,0,30.379,0,67.84v376.32C0,481.621,30.379,512,67.84,512h376.32
				c37.461,0,67.84-30.379,67.84-67.84V67.84C512,30.379,481.621,0,444.16,0z M384,298.667c47.061,0,85.333,38.272,85.333,85.333
				S431.061,469.333,384,469.333S298.667,431.061,298.667,384v-42.667h-85.333V384c0,47.061-38.272,85.333-85.333,85.333
				S42.667,431.061,42.667,384S80.939,298.667,128,298.667h42.667v-85.333H128c-47.061,0-85.333-38.272-85.333-85.333
				S80.939,42.667,128,42.667S213.333,80.939,213.333,128v42.667h85.333V128c0-47.061,38.272-85.333,85.333-85.333
				S469.333,80.939,469.333,128S431.061,213.333,384,213.333h-42.667v85.333H384z"/>
		</g>
	</g>
</g>
<g>
</g>
<g>
</g>
<g>
</g>
<g>
</g>
<g>
</g>
<g>
</g>
<g>
</g>
<g>
</g>
<g>
</g>
<g>
</g>
<g>
</g>
<g>
</g>
<g>
</g>
<g>
</g>
<g>
</g>
</svg>
