<svg id="Layer_1" height="512" viewBox="0 0 64 64" width="512" xmlns="http://www.w3.org/2000/svg" xmlns:xlink="http://www.w3.org/1999/xlink" data-name="Layer 1"><linearGradient id="linear-gradient" gradientUnits="userSpaceOnUse" x1="8.667" x2="56.571" y1="17.099" y2="44.756"><stop offset="0" stop-color="#ef32d9"/><stop offset="1" stop-color="#3f5efb"/></linearGradient><path d="m8 42v-20a14.015 14.015 0 0 1 14-14h13a2 2 0 0 1 0 4h-13a10.011 10.011 0 0 0 -10 10v20a10.011 10.011 0 0 0 10 10h20a10.011 10.011 0 0 0 10-10v-13a2 2 0 0 1 4 0v13a14.015 14.015 0 0 1 -14 14h-20a14.015 14.015 0 0 1 -14-14zm16.988-13.464 14.3-14.305 5.412-5.412a5.006 5.006 0 0 1 7.071 0l3.406 3.406a5.007 5.007 0 0 1 0 7.071l-5.407 5.412-14.3 14.3a6.328 6.328 0 0 1 -3.9 1.827l-5.57.51c-.094.009-.188.013-.281.013a3.082 3.082 0 0 1 -3.064-3.358l.506-5.561a6.328 6.328 0 0 1 1.827-3.903zm19.961-14.306 4.821 4.821 2.583-2.583a1 1 0 0 0 0-1.415l-3.406-3.406a1 1 0 0 0 -1.415 0zm-18.211 23.032 4.463-.406a2.329 2.329 0 0 0 1.435-.672l14.305-14.3-4.821-4.825-14.3 14.305a2.329 2.329 0 0 0 -.672 1.434z" fill="url(#linear-gradient)"/></svg>