<svg id="Layer_3" height="512" viewBox="0 0 48 48" width="512" xmlns="http://www.w3.org/2000/svg" data-name="Layer 3"><path d="m26 29.49a.75.75 0 0 0 -.75.75v1.31a2.2235 2.2235 0 0 1 -2.25 2.19h-2.25v-15.84a3.6512 3.6512 0 0 0 -2.3662-3.418l-4.4171-1.732h9.0333a2.2187 2.2187 0 0 1 2.25 2.18v2.83a.75.75 0 0 0 1.5 0v-2.83a3.72 3.72 0 0 0 -3.75-3.68h-10a3.753 3.753 0 0 0 -3.75 3.68v17.57a3.6523 3.6523 0 0 0 2.3672 3.4185l3.9951 1.5586a3.78 3.78 0 0 0 4.929-2.2369h2.4587a3.7251 3.7251 0 0 0 3.75-3.69v-1.3102a.75.75 0 0 0 -.75-.75z"/><path d="m38 20.25h-5.25v-3.25a.75.75 0 0 0 -1.2441-.5645l-8 7a.7506.7506 0 0 0 0 1.129l8 7a.7572.7572 0 0 0 .8037.1186.75.75 0 0 0 .4404-.6831v-3.25h5.25a.75.75 0 0 0 .75-.75v-6a.75.75 0 0 0 -.75-.75z"/></svg>