<svg clip-rule="evenodd" fill-rule="evenodd" height="512" image-rendering="optimizeQuality" shape-rendering="geometricPrecision" text-rendering="geometricPrecision" viewBox="0 0 6.82666 6.82666" width="512" xmlns="http://www.w3.org/2000/svg"><g id="Layer_x0020_1"><g id="_264565632"><path id="_264566640" d="m3.12744 5.74811c-.293402-.0085315-.587012-.0305315-.877528-.0685157-.332429-.0434646-.669413-.108374-.989465-.209272-.238358-.0751417-.505476-.182713-.702839-.33924-.138075-.109504-.257945-.258138-.257941-.442705.00000394-.198728.137075-.35478.288563-.466713.206689-.15272.480248-.258146.729693-.332795v.0973701.00311417.151008c-.0898425.028752-.17872.0610591-.265224.0980079-.0985512.0420984-.197323.0914213-.286244.151508-.0933346.0630709-.226484.173791-.22648.2985.00000394.115248.110398.216429.195913.278476.170134.123441.397543.21148.59676.274272.307634.0969685.63202.159102.951555.200764.276315.0360276.555539.057122.83461.0656417l-.157752-.157768c-.0469134-.0469173-.0469291-.123008 0-.169917.0469291-.0469094.123047-.0469134.169965.00000787l.366059.36611c.0224488.0218307.0363937.0523622.0363976.0861378.00000394.0338583-.0140236.0644606-.0365748.0863031l-.36587.366087c-.0226181.0226299-.0530748.0352047-.0850433.0352047-.0318937 0-.062311-.0126102-.0848937-.0351339-.0469961-.0468701-.0469567-.123031-.00005512-.169961l.166394-.166492zm.710024-.0053189c-.064189-.00012992-.117024-.050622-.119882-.114795-.00295276-.066185.048374-.122441.114587-.125398.34948-.0156063.70072-.0498307 1.04517-.111783.261965-.0471181.528492-.111181.778043-.204709.162-.0607126.344535-.143965.478709-.255024.0695039-.0575354.152594-.145961.152594-.242705 0-.124705-.13315-.235417-.226484-.298484-.0889213-.0600866-.187693-.109409-.286244-.151508-.0865433-.0369685-.175453-.0692913-.265331-.0980551v-.151354c0-.0024685 0 .00000787 0-.00247244v-.0976929c.249528.0745551.52313.179949.72985.332748.151469.111961.288516.268098.288516.466819 0 .390701-.513142.62398-.819402.734299-.272016.0979882-.560772.165193-.845417.214169-.336319.0578701-.678453.0913976-1.01933.105831-.00379528.00015748-.00155512.00012205-.00538189.00011417z"/><path id="_264566184" d="m4.00309 3.11814-.892531 1.07238-.350571.421295 2.49238-.00001968-1.24306-1.49364c-.00035433-.00049606-.00122835-.00146457-.00305906-.00146457-.00192913-.00001968-.00267717.00098819-.00316535.00144882z"/><path id="_264566160" d="m2.455 3.52422-.883677 1.0876 1.00617-.00000787.388268-.466713-.504402-.620913c-.00024409-.00033071-.00111811-.0014252-.00319291-.0014252-.00204331 0-.00279921.00098425-.00316535.00146063z"/><path id="_264566064" d="m2.96318 2.76748c-.0974528 0-.176878.0793504-.176878.176862.00000394.0974882.0794173.176846.176858.176846.0975787-.00001968.176854-.0793425.176854-.176846.00000787-.0975236-.0792953-.176839-.176835-.176862z"/><path id="_264565992" d="m5.27265 2.23283h-3.71848c-.0420118 0-.076248.034189-.076248.076185l.00000787 1.67722c.00001968.00103937.00001968.00207874 0 .00311417v.514898l.868197-1.06852c.0274055-.0338189.0682008-.0532283.111807-.0532756h.00024016c.0436142 0 .0844134.0193504.111937.053126l.48713.59961.838079-1.00681c.0275157-.0330512.0679528-.052.110945-.052.0430197-.00001968.0834331.0189646.110965.0520236l1.23141 1.4796v-.519024c-.00001181-.00082284-.00001181-.00164567 0-.00247244l.00000787-1.67765c0-.0419016-.0341142-.0760197-.0759921-.0760197zm-2.30949.394358c.174917-.00002362.317169.142272.317169.317154.00000787.174882-.142264.317146-.31715.317142-.174929 0-.317193-.14226-.317193-.317142.00000394-.174894.142264-.317154.317173-.317154z"/><path id="_264565848" d="m3.06602 1.49306c-.00077165-.0871063.0201378-.192531.0457205-.274724.0581496-.186831.166138-.348579.324563-.465252.0534291-.0393465.128748-.0279173.168083.0255236.039311.0534055.0277717.128677-.0255984.167988-.0750276.0552598-.133972.124732-.177886.203791.00231102-.00004724.00462598-.00007087.00694488-.00007087.188496-.00000394.341831.153303.341835.341807.00000394.188508-.153331.341807-.341831.341799-.188181-.00000787-.341323-.152787-.341831-.340862zm.240307-.0015748c.00000394.00034646.00000394.00068898 0 .00103543.00022835.0557559.0457047.101122.10152.101122.0559567 0 .101524-.0455669.101528-.101524.00000394-.0559528-.0455748-.101504-.101524-.101504-.0557323 0-.101189.0452087-.101524.10087zm-.376465-.22089c.0524134.0613504.0817008.139575.0817047.221665.00000787.188488-.153205.341811-.341713.341795-.18848-.00001575-.341898-.153287-.341831-.341811.00002362-.0663268.053815-.120114.120142-.12013.0663504-.00001575.120154.0537992.120165.120142.00000787.0559331.0455748.101524.10152.101516.0559134-.00000787.101406-.045622.101409-.101512.00000394-.0558858-.0455039-.101504-.101406-.101508-.0663819-.00000394-.12015-.0537717-.12015-.12015 0-.0663937.053752-.12015.12015-.120154.0559134-.00000394.101402-.0456299.101406-.101516.00000394-.0558898-.0455039-.1015-.101406-.101504-.0559213-.00000394-.101543.0455512-.101524.101488.00002362.0663386-.0538307.120185-.120165.120169-.0663268-.00001575-.120146-.0538189-.120142-.120154.00001575-.188504.153331-.341799.341831-.341807.188528-.00000787.341697.153315.341713.341807.00000787.0820827-.0292992.160299-.0817047.221661zm1.22585.563327h-.0194882c-.183114 0-.332102-.148929-.332094-.332059l.00001968-.462815c.00000787-.183157.148933-.331791.331996-.332051l.0194961-.00002756c.183213-.00025984.332146.148972.332154.332083l.00002362.462811c.00000787.183134-.148992.332059-.332106.332059zm-.0195394-.886646c-.0505709-.00005118-.0917402.0412402-.0917362.0917756l.00001968.462811c.00000394.0505787.0411732.0917795.0917598.0917795h.0194961c.0505945 0 .0917717-.041189.0917756-.0917795l.00002362-.462815c.00000394-.050626-.0412795-.0917008-.0918583-.091752l-.0194803-.00001968zm.582315.0415236c-.00000787-.0796339.0647874-.144465.144425-.144445.079626.00001968.14437.0648228.144362.144445-.00000787.079626-.0647598.144398-.144386.144409-.0796299.00001181-.144394-.0647874-.144402-.144409z"/></g></g></svg>