<svg id="Layer_3" height="20" viewBox="0 0 48 48" width="20" xmlns="http://www.w3.org/2000/svg" data-name="Layer 3"><path d="m26 28.99a.75.75 0 0 0 -.75.75v1.31a2.2235 2.2235 0 0 1 -2.25 2.19h-2.25v-15.84a3.6512 3.6512 0 0 0 -2.3662-3.418l-4.4171-1.732h9.0333a2.2187 2.2187 0 0 1 2.25 2.18v2.83a.75.75 0 0 0 1.5 0v-2.83a3.72 3.72 0 0 0 -3.75-3.68h-10a3.7557 3.7557 0 0 0 -3.75 3.68v17.57a3.6523 3.6523 0 0 0 2.3672 3.4185l3.9951 1.5586a3.782 3.782 0 0 0 4.929-2.2369h2.4587a3.7251 3.7251 0 0 0 3.75-3.69v-1.3102a.75.75 0 0 0 -.75-.75z"/><path d="m38.4941 22.9355-8-7a.75.75 0 0 0 -1.2441.5645v3.25h-5.25a.75.75 0 0 0 -.75.75v6a.75.75 0 0 0 .75.75h5.25v3.25a.75.75 0 0 0 .44.6831.7606.7606 0 0 0 .8037-.1186l8-7a.7506.7506 0 0 0 0-1.129z"/></svg>