<svg id="Layer_1" enable-background="new 0 0 512 512" viewBox="0 0 512 512"  xmlns="http://www.w3.org/2000/svg"><path clip-rule="evenodd" d="m485.133 456.535-3.571 3.571c-96.916 96.916-240.994 5.699-324.981-72.265l79.255-79.255c21.496 19.873 43.607 37.284 65.58 51.965 17.067 11.403 39.264 9.217 53.778-5.297l14.329-14.329zm-457.248 31.72 370.367-370.367c3.905-3.905 3.905-10.236 0-14.141s-10.236-3.905-14.141 0l-176.698 176.699c-21.543-22.835-40.307-46.427-55.964-69.861-11.403-17.067-9.216-39.264 5.298-53.778l14.329-14.329-115.611-115.611-3.571 3.571c-98.581 98.581-2.511 245.958 76.27 329.256l-114.42 114.42c-3.905 3.905-3.905 10.236 0 14.141s10.237 3.905 14.141 0zm43.335-473.917c15.903-7.788 35.714-5.088 48.905 8.103l55.377 55.377c13.191 13.191 15.891 33.002 8.103 48.905zm314.058 314.057 112.384 112.385c7.788-15.903 5.088-35.714-8.103-48.905l-55.377-55.377c-13.19-13.191-33.002-15.891-48.904-8.103z" fill-rule="evenodd"/></svg>