<svg clip-rule="evenodd" fill-rule="evenodd" stroke-linejoin="round" stroke-miterlimit="2" viewBox="0 0 24 24" xmlns="http://www.w3.org/2000/svg"><g id="Icon"><path d="m8.5 7.75c.414 0 .75.336.75.75s-.336.75-.75.75h-4c-.414 0-.75-.336-.75-.75s.336-.75.75-.75z"/><path d="m8 11.75c.414 0 .75.336.75.75s-.336.75-.75.75h-5.962c-.413 0-.75-.336-.75-.75s.337-.75.75-.75z"/><path d="m10 3.75c.414 0 .75.336.75.75s-.336.75-.75.75h-5.962c-.413 0-.75-.336-.75-.75s.337-.75.75-.75z"/><path d="m4.992 10.75.09-.5h3.418c.966 0 1.75-.784 1.75-1.75s-.784-1.75-1.75-1.75h-2.795l.09-.5h4.205c.966 0 1.75-.784 1.75-1.75 0-.71-.424-1.322-1.032-1.596h8.897c.832 0 1.629.33 2.217.918s.918 1.385.918 2.216c0 .042-.003.084-.01.125 0 0-1.491 8.885-1.491 8.879-.015.809-.344 1.582-.917 2.155-.588.588-1.385.918-2.217.918h-6.791c-.059 0-.116.021-.16.058l-3.299 2.749c-.224.187-.535.227-.799.103-.263-.123-.431-.388-.431-.679v-2.322c-.551-.135-1.059-.419-1.467-.827-.588-.588-.918-1.385-.918-2.216 0-.044.004-.088.012-.132l.106-.599h3.632c.966 0 1.75-.784 1.75-1.75s-.784-1.75-1.75-1.75z"/></g></svg>