<svg id="Layer_2_00000125581572594403778900000009495952337630967978_" enable-background="new 0 0 512 512" viewBox="0 0 512 512" xmlns="http://www.w3.org/2000/svg"><g id="Icon"><path id="_160" d="m441.4 184.1-105.8-9.6c-8.9-.8-12.8-11.6-6.5-17.9l25.1-25.1c-61.8-48.1-151.3-43.8-208.1 13.1-62.2 62.1-61.6 163.2 1.8 224.7 62.9 61 162.1 59.3 223-3.6 21.8-22.5 35.6-50 41.3-78.7 2-9.8 10.6-17 20.6-17h37.4c13 0 22.8 11.7 20.7 24.5-7.7 47.1-29.8 92.4-66.1 128.8-92.3 92.3-242 92.3-334.4 0-92-92-92.7-240.1-1.4-332.9 87.5-89 227.9-93.9 321.3-14.8l26.4-26.6c6.3-6.3 17.1-2.4 17.9 6.5l9.6 105.8c1.2 13-9.7 23.9-22.8 22.8z"/></g></svg>