<svg id="Capa_1" enable-background="new 0 0 511.508 511.508" height="1" viewBox="0 0 511.508 511.508" width="1" xmlns="http://www.w3.org/2000/svg"><g><path d="m255.857 104.1 45.595-45.596v-58.504h-91.318l.254 58.631z"/><path d="m200.282 294.36h-176.665c3.369 52.953 24.446 101.087 57.386 138.548l124.906-124.906c-2.487-4.333-4.36-8.921-5.627-13.642z"/><path d="m102.216 454.12c37.467 32.945 85.611 54.024 138.575 57.387v-176.659c-4.73-1.267-9.328-3.142-13.669-5.634z"/><path d="m275.192 259.931c-5.358-5.358-12.399-8.038-19.438-8.038-7.04 0-14.079 2.679-19.438 8.039-10.718 10.718-10.718 28.158 0 38.876 10.718 10.717 28.159 10.719 38.877 0 10.717-10.719 10.717-28.159-.001-38.877z"/><path d="m205.915 250.725-124.907-124.907c-32.943 37.457-54.029 85.59-57.402 138.542h176.681c1.268-4.719 3.141-9.305 5.628-13.635z"/><path d="m270.791 334.828v176.675c52.94-3.379 101.06-24.457 138.511-57.392l-124.904-124.903c-4.322 2.482-8.898 4.352-13.607 5.62z"/><path d="m305.606 307.989 124.908 124.908c32.934-37.459 54.008-85.589 57.377-138.538h-176.665c-1.266 4.717-3.137 9.301-5.62 13.63z"/><path d="m240.791 223.89v-92.43l-60.349-60.349-.052-11.885c-29.084 9.954-55.563 25.516-78.164 45.384l124.907 124.907c4.338-2.488 8.932-4.361 13.658-5.627z"/><path d="m270.791 223.911c4.704 1.267 9.277 3.135 13.595 5.614l124.904-124.905c-22.516-19.796-48.882-35.316-77.838-45.276v11.586l-60.661 60.661z"/><path d="m311.221 264.36h176.681c-3.372-52.948-24.455-101.078-57.393-138.532l-124.91 124.91c2.484 4.326 4.354 8.908 5.622 13.622z"/></g></svg>