<svg height="1" viewBox="0 0 24 24" width="1" xmlns="http://www.w3.org/2000/svg"><g id="Solid"><path d="m20.02 8.47h-.03a4.4248 4.4248 0 0 1 -3.13-1.33 4.4248 4.4248 0 0 1 -1.33-3.13 4.3662 4.3662 0 0 1 .5-2.01h-9.53a4.5068 4.5068 0 0 0 -4.5 4.5v11a4.5068 4.5068 0 0 0 4.5 4.5h11a4.5068 4.5068 0 0 0 4.5-4.5v-9.53a4.2457 4.2457 0 0 1 -1.98.5zm-11.52 3.53h-.01a.5061.5061 0 0 1 -.49-.5 1.5 1.5 0 0 1 3 0 .4951.4951 0 0 1 -.5.5.5015.5015 0 0 1 -.5-.5.4589.4589 0 0 0 -.5-.5.466.466 0 0 0 -.5.51.5061.5061 0 0 1 -.5.49zm6.44 1.6a3.0008 3.0008 0 0 1 -5.88 0 .5.5 0 1 1 .98-.2 2.0005 2.0005 0 0 0 3.92 0 .5.5 0 0 1 .98.2zm.56-1.6a.5015.5015 0 0 1 -.5-.5.4589.4589 0 0 0 -.5-.5.466.466 0 0 0 -.5.51.5061.5061 0 0 1 -.5.49h-.01a.5061.5061 0 0 1 -.49-.5 1.5 1.5 0 0 1 3 0 .4951.4951 0 0 1 -.5.5zm6.35-5.21-4.62-4.64a.4129.4129 0 0 0 -.11-.07 3.3806 3.3806 0 0 0 -.59 1.93 3.5183 3.5183 0 0 0 3.46 3.46 3.1906 3.1906 0 0 0 1.93-.59.55.55 0 0 0 -.07-.09z"/></g></svg>