<svg clip-rule="evenodd" fill-rule="evenodd" height="512" stroke-linejoin="round" stroke-miterlimit="2" viewBox="0 0 24 24" width="512" xmlns="http://www.w3.org/2000/svg"><g id="Icon"><path d="m2.25 10.175c0-.414.336-.75.75-.75s.75.336.75.75v8.5c0 1.243 1.007 2.25 2.25 2.25h12c1.243 0 2.25-1.007 2.25-2.25v-8.5c0-.414.336-.75.75-.75s.75.336.75.75v8.5c0 2.071-1.679 3.75-3.75 3.75h-12c-2.071 0-3.75-1.679-3.75-3.75z"/><path d="m12 13.425c.995 0 1.948.395 2.652 1.098.703.704 1.098 1.657 1.098 2.652v4.5c0 .414-.336.75-.75.75s-.75-.336-.75-.75v-4.5c0-.597-.237-1.169-.659-1.591s-.994-.659-1.591-.659-1.169.237-1.591.659-.659.994-.659 1.591v4.5c0 .414-.336.75-.75.75s-.75-.336-.75-.75v-4.5c0-.995.395-1.948 1.098-2.652.704-.703 1.657-1.098 2.652-1.098z"/><path d="m8.944 2.325v5.625c0 2.112-1.714 3.825-3.826 3.825-1.191 0-2.316-.549-3.049-1.487-.733-.939-.992-2.162-.704-3.318l.795-3.179c.326-1.303 1.496-2.216 2.838-2.216h3.196c.414 0 .75.336.75.75zm-1.5.75h-2.446c-.654 0-1.224.445-1.382 1.079l-.795 3.18c-.177.707-.018 1.456.43 2.031.449.574 1.138.91 1.867.91 1.284 0 2.326-1.041 2.326-2.325z"/><path d="m15.806 1.575h3.196c1.342 0 2.512.913 2.838 2.216l.795 3.179c.288 1.156.029 2.379-.704 3.318-.733.938-1.858 1.487-3.049 1.487-2.112 0-3.826-1.713-3.826-3.825v-5.625c0-.414.336-.75.75-.75zm.75 1.5v4.875c0 1.284 1.042 2.325 2.326 2.325.729 0 1.418-.336 1.867-.91.448-.575.607-1.324.43-2.031l-.795-3.18c-.158-.634-.728-1.079-1.382-1.079z"/><path d="m8.186 1.575h7.62c.199 0 .39.079.531.22s.219.332.219.531l-.005 5.44c-.002 2.215-1.798 4.009-4.012 4.009h-1.09c-2.216 0-4.013-1.796-4.013-4.012v-5.438c0-.414.336-.75.75-.75zm.75 1.5v4.688c0 1.387 1.125 2.512 2.513 2.512h1.09c1.387 0 2.511-1.123 2.512-2.51l.005-4.69z"/></g></svg>