<svg fill="none" viewBox="0 0 64 64" xmlns="http://www.w3.org/2000/svg" xmlns:xlink="http://www.w3.org/1999/xlink"><linearGradient id="paint0_linear_1798_3848" gradientUnits="userSpaceOnUse" x1="78.644" x2="25.404" y1="74.128" y2="11.864"><stop offset=".00265844" stop-color="#ff37df"/><stop offset="1" stop-color="#6e00ff"/></linearGradient><path clip-rule="evenodd" d="m46.5402 3.9657c2.3835-2.64828 6.5361-2.64827 8.9196.00001l6.0268 6.69649c.7389.821.6724 2.0856-.1487 2.8245-.821.7389-2.0856.6724-2.8245-.1487l-5.5134-6.12598v16.78808c0 1.1046-.8954 2-2 2s-2-.8954-2-2v-16.78808l-5.5134 6.12598c-.7389.8211-2.0035.8876-2.8245.1487-.8211-.7389-.8876-2.0035-.1487-2.8245zm-28.5402 2.03441c-6.6274 0-12 5.37259-12 11.99999v28c0 .3848.01811.7653.05352 1.1408l4.53548-7.2567c5.0277-8.0444 16.4317-8.865 22.5593-1.6232l5.1684 6.108c4.5713-6.9045 15.1001-6.9938 19.6833.1726v-12.5415c0-1.1046.8954-2 2-2s2 .8954 2 2v14c0 8.8366-7.1634 16-16 16h-28c-8.83656 0-16-7.1634-16-16v-28c0-8.83654 7.16344-15.99999 16-15.99999h17.5c1.1046 0 2 .89543 2 2s-.8954 2-2 2z" fill="url(#paint0_linear_1798_3848)" fill-rule="evenodd"/></svg>