<svg clip-rule="evenodd" fill-rule="evenodd" height="1" stroke-linejoin="round" stroke-miterlimit="2" viewBox="0 0 24 24" width="1" xmlns="http://www.w3.org/2000/svg"><g id="Icon"><path d="m3 22.75c.284 0 .544-.161.671-.415l.947-1.894c.212-.424.645-.691 1.118-.691h2.198c.615 0 1.184-.323 1.5-.85l.719-1.197c.48-.801.247-1.838-.53-2.356l-1.055-.703s1.621-.695 1.621-.695c.644-.276 1.061-.908 1.061-1.608v-.62c0-.108.069-.203.171-.237l.868-.29c.56-.186.988-.643 1.138-1.213.151-.571.004-1.179-.391-1.618l-2.965-3.294c-.207-.23-.321-.528-.321-.836v-2.233c0-.414-.336-.75-.75-.75h-7c-.414 0-.75.336-.75.75v20c0 .414.336.75.75.75z"/><path d="m18.172 10.577c1.269 1.055 2.078 2.645 2.078 4.423s-.809 3.368-2.078 4.423c-.318.265-.362.738-.097 1.056.265.319.738.362 1.056.098 1.6-1.331 2.619-3.336 2.619-5.577s-1.019-4.246-2.619-5.577c-.318-.264-.791-.221-1.056.098-.265.318-.221.791.097 1.056z"/><path d="m16.142 12.577c.695.578 1.138 1.449 1.138 2.423s-.443 1.845-1.138 2.423c-.318.265-.362.738-.097 1.056.264.319.738.362 1.056.098 1.026-.853 1.679-2.14 1.679-3.577s-.653-2.724-1.679-3.577c-.318-.264-.792-.221-1.056.098-.265.318-.221.791.097 1.056z"/><path d="m13.668 14.077c.265.22.434.552.434.923s-.169.703-.434.923c-.318.265-.362.738-.097 1.056.265.319.738.362 1.056.098.596-.496.975-1.242.975-2.077s-.379-1.581-.975-2.077c-.318-.264-.791-.221-1.056.098-.265.318-.221.791.097 1.056z"/></g></svg>